# xmcd CD database file
#
# Track frame offsets:
#	150
#	12895
#	55233
#	73042
#	83080
#	101744
#	116407
#	134868
#	155023
#
# Disc length: 2285 seconds
#
# Revision: 1
# Processed by: cddbd v1.5.2PL0 Copyright (c) Steve Scherf et al.
# Submitted via: CDex 1.51
#
DISCID=7a08eb09
DTITLE=Kenny Burrell - GUITAR FORMS
DYEAR=1900
DGENRE=Jazz
TTITLE0=Downstairs
TTITLE1=Lotus Land
TTITLE2=Terrace Theme
TTITLE3=Prelude #2 excerpt
TTITLE4=Moon And Sand
TTITLE5=Loie
TTITLE6=Greensleeves
TTITLE7=Last Night When we Were Young
TTITLE8=Breadwinner
EXTD=
EXTT0=
EXTT1=
EXTT2=
EXTT3=
EXTT4=
EXTT5=
EXTT6=
EXTT7=
EXTT8=
PLAYORDER=
